<svg xmlns="http://www.w3.org/2000/svg" xmlns:xlink="http://www.w3.org/1999/xlink" x="0px" y="0px" viewBox="0 0 160.6 53.2" style="enable-background:new 0 0 160.6 53.2;" xml:space="preserve"><g transform="translate(0 0)">	<g>		<g>			<path d="M41.4,32.5c-5.7-0.8-9.7-6.1-8.9-11.8c0.7-5.2,5.2-9,10.4-9c1.9,0,3.7,0.5,5.3,1.4    c-2.9,2.4-5.7,5.1-8.2,7.9C35.9,26,37.3,30.7,41.4,32.5"></path>			<path d="M53.3,22.1c0,5.8-4.7,10.4-10.4,10.5c0,0,0,0,0,0c-0.4,0-0.9,0-1.3-0.1c-1-0.9-2.8-3.2-0.8-8.1    c1.6-3.8,5-7.1,8.4-10.7C51.8,15.8,53.4,18.9,53.3,22.1"></path>			<path d="M60.6,0c-0.4-0.1-1,0-2.2,1.6l-0.1,0.2L57,1.7l0.1-0.1c0,0,0-0.1,0-0.2c0,0,0,0,0,0l-0.1-0.1    c0,0-0.1,0-0.2,0c0,0,0,0,0,0l-0.3,0.3l-1.3-0.1l0.1-0.1c0,0,0-0.1,0-0.2c0,0,0,0,0,0l-0.1-0.1c0,0-0.1,0-0.2,0l-0.2,0.3    l-1.1-0.1l-0.6,0.7l4.1,1.1c-0.6,0.9-1.2,1.7-1.6,2.3l-1.4-0.1L53.7,6L55,6.5l-0.2,0.4l0.4-0.2L56,7.9l0.4-0.5L56,6.1    c0.5-0.5,1.3-1.2,2-2l1.8,3.8l0.6-0.7l-0.2-1l0.2-0.3c0,0,0-0.1,0-0.2c0,0,0,0,0,0l-0.1-0.1c0,0-0.1,0-0.2,0c0,0,0,0,0,0L60,5.7    l-0.3-1.3L60,4.1c0,0,0-0.1,0-0.2c0,0,0,0,0,0l-0.1-0.1c0,0-0.1,0-0.2,0c0,0,0,0,0,0L59.6,4l-0.3-1.3l0.1-0.1    C60.9,1.1,60.9,0.5,60.6,0C60.7,0.1,60.6,0.1,60.6,0"></path>			<path d="M58.9,13.6c-1.2-2.2-2.7-4.1-4.6-5.6c-0.8,1-1.6,2-2.5,3C58,15.9,59,24.9,54,31.1s-13.9,7.2-20.1,2.2    s-7.2-13.9-2.2-20.1c2.7-3.4,6.8-5.4,11.2-5.4c2.9,0,5.8,0.9,8.2,2.6l2.8-2.8c-2.9-2.2-6.4-3.5-10-3.7c-0.3,0-0.7,0-1,0    s-0.7,0-1,0c-6.7,0.3-12.6,4.3-15.4,10.4c-2.9,6.4-2.1,13.8,2.1,19.4l14.4,19.4l14.4-19.4C61.7,27.9,62.3,20.1,58.9,13.6"></path>			<path d="M10.2,41.4c-1.3,0-2.5-0.2-3.7-0.5c-1-0.3-2-0.8-2.8-1.4c-0.8-0.5-1.4-1.2-2-1.9    c-0.5-0.6-0.9-1.3-1.2-2.1l5-2c0.3,1,1,1.8,1.9,2.4c0.8,0.6,1.8,0.9,2.9,0.9c1.5,0.1,2.9-0.5,3.9-1.6c1-1.3,1.5-2.8,1.4-4.5v-1.4    h-0.3c-0.6,0.9-1.5,1.6-2.4,2c-1.1,0.5-2.3,0.8-3.6,0.7c-1.2,0-2.4-0.2-3.4-0.7c-1.1-0.5-2.1-1.2-3-2C1,27.3,0,24.7,0,21.9    c0-1.4,0.3-2.9,0.8-4.2c0.5-1.2,1.2-2.3,2.1-3.2c0.8-0.9,1.8-1.6,3-2.1c1.1-0.5,2.3-0.7,3.4-0.7c1.2,0,2.4,0.2,3.6,0.7    c1,0.5,1.8,1.2,2.4,2h0.3v-2.1h5v18.3c0,1.5-0.2,3.1-0.8,4.5c-0.5,1.3-1.2,2.4-2.1,3.4c-0.9,0.9-2,1.7-3.3,2.1    C13.1,41.2,11.7,41.5,10.2,41.4 M10.4,27.4c0.7,0,1.3-0.1,1.9-0.4c0.6-0.2,1.2-0.6,1.7-1c0.5-0.5,0.9-1.1,1.2-1.7    c0.3-0.7,0.5-1.5,0.4-2.3c0-0.8-0.1-1.6-0.4-2.3c-0.3-0.6-0.7-1.2-1.2-1.7c-0.5-0.5-1-0.8-1.7-1c-0.6-0.2-1.3-0.4-1.9-0.4    c-0.6,0-1.3,0.1-1.9,0.4c-0.6,0.2-1.2,0.6-1.7,1.1C6.4,18.4,6,19,5.7,19.6c-0.6,1.5-0.6,3.1,0,4.6C6,24.9,6.4,25.5,6.9,26    c0.5,0.5,1,0.8,1.6,1C9.1,27.2,9.8,27.4,10.4,27.4"></path>			<path d="M75.3,32.7c-1.5,0-2.9-0.5-4-1.5c-1.1-1.1-1.7-2.6-1.6-4.1v-11h-3.5v-3.4h3.5v-6h3.7v6h4.8v3.4h-4.8    v9.8c-0.1,1,0.2,1.9,0.8,2.7c0.5,0.4,1.1,0.7,1.7,0.7c0.3,0,0.6,0,0.9-0.1c0.3-0.1,0.5-0.2,0.8-0.3l1.2,3.3    C77.6,32.6,76.5,32.8,75.3,32.7"></path>			<path d="M85.6,32.7h-3.7V13h3.5v3.2h0.2c0.4-1.1,1.3-2.1,2.3-2.7c1-0.7,2.2-1.1,3.4-1.1c0.9,0,1.9,0.1,2.7,0.5    L93,16.5c-0.7-0.2-1.4-0.3-2.2-0.3c-1.4,0-2.7,0.6-3.6,1.7c-1,1.1-1.6,2.5-1.5,3.9V32.7z"></path>			<path d="M103.5,11.7c2.4-0.1,4.7,0.7,6.5,2.2c1.6,1.6,2.5,3.8,2.4,6v12.1h-3.5v-2.7h-0.2    c-1.3,2.1-3.6,3.4-6.1,3.4c-2,0.1-3.9-0.6-5.5-1.9c-1.4-1.2-2.2-3-2.2-4.8c-0.1-1.9,0.8-3.7,2.3-4.9c1.8-1.3,4-1.9,6.2-1.8    c1.9-0.1,3.8,0.3,5.4,1.2v-0.8c0-1.3-0.6-2.5-1.5-3.3c-1-0.9-2.3-1.4-3.6-1.3c-2,0-3.8,0.9-4.9,2.6l-3.3-2.1    C97.3,13,100.4,11.6,103.5,11.7 M98.7,26.1c0,1,0.5,1.9,1.2,2.4c0.8,0.6,1.8,1,2.9,1c1.6,0,3.1-0.6,4.2-1.7    c1.2-1,1.8-2.5,1.8-4.1c-1.4-1-3.1-1.5-4.8-1.4c-1.3,0-2.7,0.3-3.8,1.1C99.3,24,98.7,25,98.7,26.1"></path>			<path d="M125.6,32.7h-3.7l-8-19.7h4l5.8,15.3h0.1l5.9-15.3h3.9L125.6,32.7z"></path>			<path d="M144.4,32.7c-2.7,0.1-5.3-1-7.2-3c-1.9-2-2.9-4.7-2.8-7.5c-0.1-2.8,0.9-5.4,2.7-7.5    c3.8-3.9,10-4,13.9-0.2c0,0,0,0,0.1,0.1c1.7,1.9,2.6,4.5,2.6,7.9l0,0.4h-15.5c0,1.8,0.7,3.4,1.9,4.7c2.5,2.4,6.4,2.4,8.8-0.1    c0.5-0.5,0.9-1,1.2-1.7l3.3,1.6c-0.8,1.6-2.1,3-3.7,3.9C148.1,32.3,146.3,32.8,144.4,32.7 M138.5,19.9h11.3    c-0.1-1.3-0.7-2.5-1.7-3.4c-1.1-0.9-2.6-1.4-4-1.3c-1.3,0-2.6,0.4-3.6,1.3C139.5,17.3,138.8,18.5,138.5,19.9"></path>			<rect x="156.9" y="3.9" width="3.7" height="28.8"></rect>			<path d="M69.7,42.8l0.3-0.6c0.5,0.4,1.2,0.7,1.8,0.6c1,0,1.4-0.4,1.4-0.9c0-1.4-3.4-0.5-3.4-2.6    c0-0.9,0.7-1.6,2.1-1.6c0.6,0,1.3,0.2,1.8,0.5l-0.3,0.6c-0.5-0.3-1-0.5-1.5-0.5c-0.9,0-1.4,0.4-1.4,0.9c0,1.4,3.4,0.5,3.4,2.6    c0,0.9-0.7,1.6-2.2,1.6C71.1,43.5,70.3,43.2,69.7,42.8"></path>			<path d="M78.4,37.8h0.8v4.9h3v0.7h-3.8L78.4,37.8z"></path>			<path d="M85.7,40.6c-0.1-1.6,1.2-3,2.9-3.1c1.6-0.1,3,1.2,3.1,2.9c0.1,1.6-1.2,3-2.9,3.1c0,0-0.1,0-0.1,0    c-1.6,0.1-2.9-1.1-3-2.7C85.7,40.7,85.7,40.7,85.7,40.6 M90.9,40.6c0-1.2-0.9-2.2-2.1-2.2c-1.2,0-2.2,0.9-2.2,2.1    c0,1.2,0.9,2.2,2.1,2.2c0,0,0,0,0,0c1.2,0,2.1-0.9,2.2-2C90.9,40.7,90.9,40.6,90.9,40.6"></path>			<path d="M99.9,40.6h0.8v2.2c-0.6,0.5-1.3,0.7-2.1,0.7c-1.6,0.1-2.9-1.2-3-2.7s1.2-2.9,2.7-3c0.1,0,0.2,0,0.3,0    c0.8,0,1.6,0.3,2.1,0.9l-0.5,0.5c-0.4-0.4-1-0.7-1.6-0.6c-1.2,0-2.2,0.9-2.2,2.1c0,1.2,0.9,2.2,2.1,2.2c0,0,0.1,0,0.1,0    c0.5,0,0.9-0.1,1.3-0.4L99.9,40.6z"></path>			<path d="M109,42h-3l-0.6,1.4h-0.8l2.5-5.6h0.8l2.5,5.6h-0.8L109,42z M108.7,41.4l-1.2-2.7l-1.2,2.7H108.7z"></path>			<path d="M119.2,37.8v5.6h-0.7l-3.3-4.2v4.2h-0.8v-5.6h0.7l3.3,4.2v-4.2H119.2z"></path>			<path d="M134.2,37.8v5.6h-0.8v-2.5h-3.2v2.5h-0.8v-5.6h0.8v2.4h3.2v-2.4H134.2z"></path>			<path d="M143.1,42.7v0.7h-4.1v-5.6h3.9v0.7h-3.1v1.7h2.8v0.7h-2.8v1.8H143.1z"></path>			<path d="M151.3,43.4l-1.2-1.7c-0.1,0-0.2,0-0.4,0h-1.4v1.7h-0.8v-5.6h2.2c1.5,0,2.3,0.7,2.3,1.9    c0,0.8-0.5,1.5-1.2,1.8l1.3,1.9L151.3,43.4z M151.3,39.8c0-0.8-0.5-1.3-1.6-1.3h-1.4V41h1.4C150.8,41,151.3,40.6,151.3,39.8"></path>			<path d="M160.6,42.7v0.7h-4.1v-5.6h3.9v0.7h-3.1v1.7h2.8v0.7h-2.8v1.8H160.6z"></path>		</g>	</g></g></svg>