<svg xmlns="http://www.w3.org/2000/svg" xmlns:xlink="http://www.w3.org/1999/xlink" x="0px" y="0px" viewBox="0 0 100 100" style="enable-background:new 0 0 100 100;" xml:space="preserve"><path d="M20.4,39.4c1.6,0,3.2,0.1,4.5,0.3c1.3,0.2,2.5,0.4,3.6,0.7c1.1,0.3,2,0.7,2.8,1.1c0.8,0.4,1.5,0.9,2.2,1.3 c0.3,0.2,0.4,0.4,0.4,0.6c0.1,0.3,0,0.4-0.1,0.6c-0.1,0.2-0.3,0.3-0.4,0.4c-0.2,0.1-0.4,0.1-0.8-0.1c-0.7-0.3-1.3-0.6-2-0.8 c-0.6-0.2-1.3-0.4-2-0.5c-0.7-0.1-1.4-0.3-2.2-0.3c-0.8-0.1-1.5-0.1-2.4-0.1c-0.8,0.5-1.6,1.1-2.5,2c-1,0.8-1.9,1.8-2.9,3 c-1,1.1-2,2.3-3.1,3.7c-1,1.3-2,2.7-3,4.1c-1,1.4-1.8,2.8-2.7,4.3c-0.8,1.5-1.6,2.8-2.2,4.1S6.3,66.4,6,67.5 c-0.4,1.2-0.6,2.2-0.6,3.1c0,0.1,0,0.3-0.1,0.4c-0.1,0.1-0.1,0.3-0.2,0.3c-0.1,0.1-0.2,0.1-0.4,0.1c-0.1,0-0.3-0.1-0.5-0.3 c-0.5-0.4-0.9-0.8-1.3-1.1c-0.4-0.4-0.6-0.8-0.9-1.3S1.8,68,1.6,67.7c-0.1-0.4-0.1-0.6-0.1-0.9c0.1-0.7,0.3-1.5,0.6-2.3 c0.3-0.9,0.8-1.8,1.4-2.9c0.6-1,1.3-2.1,2-3.3c0.8-1.1,1.6-2.3,2.5-3.5c0.9-1.1,1.8-2.3,2.8-3.5c1-1.1,2-2.2,2.9-3.3 c1-1.1,1.9-2,2.9-2.9c1-0.9,1.8-1.7,2.6-2.4c-1,0.1-1.9,0.3-3,0.5s-2.2,0.6-3.2,1C12,44.6,11,45.1,10,45.6c-1,0.5-1.8,1.1-2.6,1.7 C6.6,48,6,48.6,5.5,49.2c-0.4,0.7-0.7,1.4-0.7,2.1c0,0.4,0.1,0.8,0.2,1.2c0.1,0.4,0.4,0.6,0.8,0.8c0.2,0.1,0.3,0.2,0.4,0.4 c0.1,0.2,0.1,0.3,0.1,0.5c-0.1,0.2-0.1,0.3-0.3,0.4c-0.1,0.1-0.4,0.1-0.6,0.1c-0.4,0-0.8-0.1-1.3-0.2c-0.5-0.1-1.1-0.3-1.6-0.6 c-0.5-0.3-1-0.7-1.4-1.3c-0.4-0.5-0.6-1.3-0.6-2.2c-0.1-1.8,0.4-3.4,1.5-4.8c1.1-1.4,2.5-2.5,4.3-3.4c1.8-1,3.9-1.6,6.3-2.1 C15.1,39.7,17.7,39.4,20.4,39.4L20.4,39.4z"></path><path d="M19.2,45.9c2.6-2.3,3.9-3.5,3.9-3.5C21.7,43.3,20.4,44.5,19.2,45.9L19.2,45.9z"></path><path d="M2.2,66.1c2.2-4.1,4.3-7.6,6.2-10.3C6,58.5,3.9,61.9,2.2,66.1L2.2,66.1z"></path><path d="M1,49.6c0.9-3.2,3.7-5.9,8.4-8.1C4.1,43.6,1.3,46.3,1,49.6L1,49.6z"></path><path d="M20.7,64.1c0.3,0,0.5-0.1,0.9-0.3c0.4-0.3,0.8-0.6,1.2-1c0.4-0.4,0.9-0.9,1.4-1.4c0.5-0.5,1-1,1.4-1.5s0.9-1,1.3-1.5 c0.4-0.4,0.7-0.8,1-1.1c0.1-0.2,0.3-0.3,0.5-0.3s0.3,0,0.4,0.1c0.1,0.1,0.2,0.3,0.3,0.4c0,0.2-0.1,0.4-0.3,0.6 c-0.6,0.8-1.3,1.6-2.2,2.6c-0.8,1-1.7,1.9-2.6,2.7c-0.9,0.8-1.8,1.5-2.7,2c-0.9,0.5-1.7,0.8-2.5,0.6c-0.6-0.1-1-0.3-1.3-0.6 c-0.3-0.3-0.6-0.7-0.7-1.1c-0.1-0.4-0.2-0.9-0.1-1.4c0.1-0.5,0.3-1,0.6-1.5c0.8-1.2,1.4-2.2,2-3c0.5-0.8,0.9-1.4,1.1-1.8 c0.3-0.4,0.4-0.8,0.3-1c0-0.2-0.2-0.3-0.4-0.4l-2.5,3c-0.1,0.2-0.3,0.3-0.4,0.3c-0.2,0-0.3-0.1-0.4-0.2c-0.1-0.1-0.2-0.3-0.3-0.4 c0-0.2,0.1-0.3,0.2-0.5l2.4-3c-0.1-0.1-0.3-0.3-0.3-0.4c-0.1-0.2-0.1-0.4-0.1-0.7s0-0.5,0.1-0.8c0.1-0.3,0.1-0.5,0.3-0.7 c0.1-0.3,0.3-0.6,0.6-0.9c0.3-0.3,0.5-0.6,0.8-0.9c0.3-0.3,0.6-0.5,1-0.7c0.4-0.2,0.8-0.3,1.2-0.3c0.6,0,1,0.1,1.1,0.4 s0.3,0.5,0.2,0.8c-0.1,0.3-0.3,0.7-0.4,1.1c-0.3,0.4-0.5,0.8-0.8,1.1c-0.3,0.3-0.6,0.6-0.8,0.9c-0.3,0.3-0.4,0.4-0.6,0.5 c0.3-0.1,0.6-0.1,1-0.2c0.4-0.1,0.8-0.1,1.1-0.1s0.7,0.1,1,0.2c0.3,0.1,0.6,0.3,0.7,0.5c0.1,0.3,0.2,0.5,0.1,0.9 c-0.1,0.4-0.3,0.8-0.6,1.4c-0.1,0.1-0.3,0.4-0.6,0.8c-0.3,0.4-0.6,0.9-1,1.5c-0.4,0.6-0.8,1.1-1.1,1.8c-0.4,0.6-0.7,1.2-1,1.7 c-0.3,0.5-0.5,1-0.6,1.3C20.4,63.9,20.5,64.1,20.7,64.1L20.7,64.1z"></path><path d="M24.6,53.9c0.4,0.3,0.6,1,0.5,1.8C25.4,54.6,25.3,54.1,24.6,53.9L24.6,53.9z"></path><path d="M17.1,64.4c-0.3-1.1,0.4-2.8,1.8-5.1C17.2,61.8,16.6,63.5,17.1,64.4L17.1,64.4z"></path><path d="M42.6,58.1c-0.6,0.6-1.2,1.5-1.9,2.3c-0.7,0.9-1.5,1.8-2.2,2.7c-0.8,0.9-1.6,1.6-2.3,2.2c-0.8,0.6-1.6,0.9-2.3,0.9 c-0.6,0-1.1-0.1-1.4-0.3c-0.4-0.2-0.6-0.5-0.8-0.8c-0.1-0.4-0.3-0.8-0.3-1.2c0-0.4,0.1-0.9,0.2-1.4c-0.5,0.5-1,1-1.5,1.4 c-0.5,0.4-1,0.8-1.5,1.1c-0.5,0.3-1,0.6-1.5,0.8c-0.4,0.2-0.9,0.3-1.3,0.3c-0.6-0.1-1-0.3-1.2-0.7c-0.3-0.4-0.3-1-0.3-1.6 c0.1-0.6,0.3-1.4,0.5-2.2c0.3-0.8,0.7-1.6,1.2-2.5c0.5-0.8,1.1-1.6,1.7-2.4c0.6-0.8,1.3-1.5,2.1-2c0.8-0.6,1.5-1.1,2.3-1.4 c0.8-0.3,1.6-0.4,2.4-0.4c0.6,0.1,1.1,0.2,1.5,0.3c0.4,0.1,0.7,0.3,0.9,0.6c0.3,0.2,0.4,0.4,0.4,0.7s0.1,0.5,0.1,0.8 c0,0.2-0.1,0.4-0.3,0.8s-0.4,0.6-0.6,0.8C36.3,56.9,36.2,57,36,57c-0.1,0-0.2-0.2-0.1-0.6c0.1-0.5-0.1-0.8-0.6-0.8 c-0.4,0-1,0.1-1.6,0.4c-0.6,0.3-1.3,0.9-2.2,1.7c-0.3,0.3-0.5,0.6-0.8,0.9c-0.3,0.4-0.6,0.8-0.9,1.1c-0.3,0.4-0.6,0.8-0.8,1.3 s-0.4,0.8-0.6,1.1S28,62.8,28,63s0,0.3,0.1,0.3c0.1,0,0.3-0.2,0.7-0.5c0.4-0.3,0.8-0.7,1.3-1.2c0.5-0.5,1-1,1.6-1.5 c0.6-0.6,1.1-1.1,1.5-1.5c0.3-0.4,0.6-0.7,0.8-1c0.3-0.3,0.5-0.3,0.7-0.3c0.2,0,0.4,0.1,0.6,0.3c0.3,0.2,0.4,0.4,0.7,0.8 c0.2,0.3,0.4,0.6,0.4,0.8c0.1,0.3,0.1,0.4-0.1,0.6c-0.1,0-0.1,0.1-0.3,0.4c-0.1,0.3-0.3,0.5-0.4,0.8c-0.2,0.3-0.4,0.7-0.6,1 c-0.2,0.4-0.3,0.7-0.4,1c-0.1,0.3-0.1,0.6-0.2,0.8c0,0.2,0.1,0.3,0.3,0.3c0.4,0,0.8-0.3,1.3-0.8c0.6-0.5,1.1-1.1,1.7-1.8 c0.6-0.7,1.2-1.5,1.8-2.3c0.6-0.8,1.1-1.5,1.6-2c0.1-0.2,0.3-0.3,0.4-0.3c0.2,0,0.3,0.1,0.4,0.2c0.1,0.1,0.2,0.3,0.2,0.4 C42.8,57.7,42.8,57.9,42.6,58.1L42.6,58.1z"></path><path d="M36.1,60.2c0.3-0.4,0.4-0.8,0.3-1.3C36.7,59.4,36.6,59.8,36.1,60.2L36.1,60.2z"></path><path d="M29.5,55.2c1.7-1.3,3.6-2,5.5-2.2C33,53,31.2,53.7,29.5,55.2L29.5,55.2z"></path><path d="M49.6,60.2c-0.3,0.5-0.6,1.1-1.2,1.8c-0.6,0.7-1.3,1.3-2,2s-1.6,1.1-2.5,1.6s-1.8,0.7-2.7,0.7s-1.5-0.2-1.9-0.6 s-0.6-1-0.6-1.7s0.2-1.5,0.5-2.3c0.3-0.9,0.7-1.7,1.2-2.5c0.3-0.4,0.4-0.8,0.7-1.1c0.3-0.4,0.5-0.8,0.8-1.2c0.3-0.4,0.5-0.8,0.7-1.1 c0.3-0.4,0.4-0.7,0.6-1c0.1-0.1,0.1-0.1,0.1-0.3c0.1-0.1,0.1-0.3,0.2-0.4c0.1-0.1,0.1-0.3,0.2-0.4c0.1-0.1,0.1-0.3,0.1-0.3 c0-0.2,0.1-0.3,0.3-0.2c0.2,0,0.4,0.1,0.7,0.2c0.2,0.1,0.4,0.2,0.6,0.3c0.3,0.2,0.5,0.4,0.8,0.6c0.3,0.3,0.5,0.4,0.7,0.7 c0.2,0.3,0.3,0.4,0.3,0.6c0,0.1-0.1,0.2-0.3,0.5s-0.4,0.6-0.7,1.1c-0.3,0.4-0.6,0.9-0.9,1.4c-0.3,0.5-0.6,1-1,1.4 c-0.3,0.4-0.6,0.8-0.8,1.2c-0.3,0.3-0.4,0.6-0.4,0.7c-0.2,0.3-0.3,0.6-0.4,1s-0.3,0.6-0.3,0.9c-0.1,0.3-0.1,0.5-0.1,0.6 c0,0.2,0.1,0.3,0.3,0.3c0.4,0.1,1-0.1,1.5-0.5c0.6-0.4,1.2-0.9,1.8-1.5c0.6-0.6,1.2-1.3,1.8-2c0.6-0.7,1.1-1.4,1.6-2.1 c-0.1-0.5-0.1-1.1,0-1.8c0.1-0.7,0.3-1.4,0.8-2.2c0.2-0.3,0.4-0.6,0.6-0.9c0.2-0.3,0.4-0.5,0.8-0.8c0.3-0.2,0.6-0.4,1-0.5 c0.3-0.1,0.7-0.2,1.1-0.1c0.5,0.1,0.8,0.2,1,0.4c0.2,0.3,0.2,0.6,0.1,1c-0.1,0.4-0.2,0.8-0.4,1.3c-0.2,0.4-0.4,0.9-0.7,1.3 c-0.3,0.4-0.5,0.8-0.8,1.2c-0.3,0.4-0.4,0.6-0.6,0.8c-0.1,0.1-0.1,0.3-0.1,0.6c0,0.2,0,0.4,0.1,0.6s0.1,0.4,0.2,0.6 c0.1,0.1,0.3,0.3,0.4,0.3c0.3,0,0.6-0.1,1-0.3c0.3-0.1,0.6-0.4,1-0.6s0.6-0.6,1-0.9c0.3-0.3,0.6-0.7,1-1.1c0.1-0.2,0.3-0.3,0.5-0.3 s0.3,0,0.4,0.1c0.1,0.1,0.2,0.2,0.2,0.4c0,0.2-0.1,0.4-0.2,0.6c-0.4,0.5-0.8,1.1-1.2,1.6c-0.4,0.5-0.9,1-1.3,1.3 c-0.4,0.4-0.9,0.7-1.4,0.9c-0.4,0.3-0.9,0.3-1.3,0.3c-0.5,0-1-0.1-1.5-0.4C50.1,61.3,49.7,60.9,49.6,60.2L49.6,60.2z"></path><path d="M53.7,52.2c0.3,0.2,0.5,0.6,0.5,1.3C54.3,52.7,54.2,52.2,53.7,52.2L53.7,52.2z"></path><path d="M49.4,56.9c0.3-1.8,1.1-3.2,2.3-4.3C50.2,53.7,49.4,55.1,49.4,56.9L49.4,56.9z"></path><path d="M40.5,59.3c1.5-1.8,2.5-3.7,3.2-5.5C43.1,55.1,42,57,40.5,59.3L40.5,59.3z"></path><path d="M59.3,63.8c0.8,0,1.6-0.3,2.4-0.7c0.8-0.5,1.6-1.1,2.4-1.8c0.8-0.7,1.5-1.4,2.2-2.2c0.7-0.8,1.3-1.4,1.8-2 c0.1-0.2,0.3-0.3,0.4-0.3c0.2,0,0.3,0.1,0.4,0.2c0.1,0.1,0.2,0.3,0.2,0.4c0,0.2,0,0.3-0.1,0.5c-0.8,0.9-1.5,1.8-2.3,2.7 c-0.8,1-1.6,1.8-2.6,2.6c-1,0.8-1.9,1.5-3,2c-1.1,0.5-2.3,0.8-3.6,0.8c-1.1,0-2.1-0.2-2.7-0.6c-0.6-0.4-1.1-0.9-1.3-1.5 c-0.3-0.6-0.3-1.3-0.1-2.1c0.1-0.8,0.4-1.6,0.8-2.4c0.4-0.8,1-1.6,1.6-2.4c0.6-0.8,1.3-1.5,2.1-2.2c0.8-0.6,1.5-1.1,2.3-1.5 c0.8-0.4,1.6-0.6,2.4-0.6c0.5,0,1,0.1,1.4,0.1c0.4,0.1,0.7,0.3,1,0.5c0.3,0.2,0.4,0.4,0.6,0.8c0.1,0.3,0.2,0.6,0.2,0.9 c0,0.5-0.1,1.1-0.4,1.6c-0.3,0.6-0.6,1.1-1.1,1.6c-0.4,0.5-1,1-1.6,1.4c-0.6,0.4-1.2,0.8-1.8,1.1c-0.6,0.3-1.3,0.6-1.8,0.8 c-0.6,0.2-1.2,0.3-1.7,0.4c-0.1,0.5,0.1,1,0.4,1.3C58.1,63.7,58.6,63.9,59.3,63.8L59.3,63.8z"></path><path d="M53.6,61.7c-0.1,1.5,0.3,2.7,1.3,3.6C53.7,64.5,53.2,63.3,53.6,61.7L53.6,61.7z"></path><path d="M65.4,54c0.2,0.8,0.2,1.6-0.1,2.7C65.8,55.6,65.9,54.7,65.4,54L65.4,54z"></path><path d="M55.5,58.1c1.8-2.4,3.9-4.1,6.3-4.9C59.3,53.9,57.2,55.5,55.5,58.1L55.5,58.1z"></path><path d="M57.9,60.5c0.5-0.1,1.1-0.3,1.8-0.6c0.6-0.3,1.3-0.7,1.9-1.1c0.6-0.4,1.1-0.9,1.5-1.3c0.4-0.4,0.6-0.9,0.7-1.3 c0-0.1,0-0.3-0.1-0.4s-0.3-0.2-0.5-0.2c-0.6,0-1.1,0.1-1.6,0.4s-1.1,0.7-1.5,1.1c-0.4,0.4-0.9,1-1.3,1.6 C58.4,59.3,58.1,59.9,57.9,60.5L57.9,60.5z"></path><path d="M80.5,45.9c-0.1,0-0.3,0.1-0.6,0.4s-0.7,0.8-1.1,1.3c-0.4,0.5-0.9,1.1-1.5,1.8c-0.5,0.7-1.1,1.4-1.6,2.2 c-0.5,0.8-1.1,1.5-1.6,2.2c-0.5,0.7-1,1.4-1.4,2c0.6-0.4,1.2-0.8,1.9-1.5c0.7-0.6,1.3-1.3,2-2c0.6-0.7,1.3-1.5,1.8-2.2 c0.6-0.8,1.1-1.5,1.5-2c0.4-0.6,0.6-1.1,0.8-1.5C80.8,46.1,80.8,45.9,80.5,45.9L80.5,45.9z"></path><path d="M67.9,58.1c2.6-4.1,5.5-8,8.7-11.5C73.1,49.9,70.2,53.7,67.9,58.1L67.9,58.1z"></path><path d="M80.8,58.6c3.4,0.5,4.5,3.9,1.9,7.2c-3.6,4.5-14.7,6.9-20.5,8.1c-2.7,0.6-5.5,1.1-8.2,1.5c-20.3,3.2-32.2,2.6-37.7-0.2 c-6-3-4.3-7.9-1.1-11.9c0.1-0.2,0.3-0.4,0.4-0.6c0,0.1,0,0.1,0,0.1c-0.1,0.6-0.1,1.3,0.1,1.8c-1.8,2.2-2.5,4.9-1.1,6.3 c6.2,5.8,30.2,3.7,47,0.8c5.9-1.1,16.2-2.7,20.4-7c2.5-2.7,1.5-5-1-5.3c-5.5-0.6-6,6.7-11.7,6.7c-1.3,0-2.2-0.3-2.7-1 c-0.5-0.7-0.7-1.6-0.6-2.7c0.1-1.1,0.4-2.3,1-3.7c0.6-1.3,1.3-2.7,2.3-4.1c0.4-0.7,1-1.5,1.5-2.2c0.6-0.8,1.1-1.6,1.8-2.3 c0.6-0.8,1.3-1.5,1.9-2.2c0.6-0.7,1.3-1.3,2-1.9c0.6-0.5,1.3-1,2-1.3c0.6-0.3,1.2-0.5,1.8-0.5c0.5,0,0.9,0.1,1.2,0.3 s0.5,0.4,0.6,0.8s0.2,0.6,0.1,1c0,0.3-0.1,0.6-0.3,1c-0.3,0.5-0.6,1.1-1,1.8c-0.4,0.7-1,1.4-1.5,2.1c-0.6,0.8-1.2,1.5-1.9,2.2 c-0.7,0.7-1.4,1.4-2.1,2c-0.7,0.6-1.4,1.2-2.1,1.7c-0.7,0.5-1.3,0.9-2,1.1c-0.5,0.8-0.9,1.6-1.1,2.3c-0.3,0.7-0.4,1.3-0.5,1.9 c-0.1,0.6-0.1,1,0,1.3c0.1,0.3,0.2,0.5,0.4,0.5C73.3,64.2,75.4,57.7,80.8,58.6L80.8,58.6z"></path><path d="M26.5,53.7c14.7-9.2,36.4-16.4,48.5-17.9c0.2,0.1,1.3,0.6,1.5,1.3c0.3,1-0.6,2-0.7,2.1c-13.7,2.2-34.9,7.1-49.1,16.2 c0-0.1,0-0.1,0.1-0.2C26.8,54.8,26.8,54.2,26.5,53.7L26.5,53.7z"></path><path d="M80.1,35.3L77,32.9h-0.1l-1.5,0.3c-0.1,0-0.1,0-0.1,0.1s0,0.1,0,0.1l2.4,3.6l-0.9,4.3c0,0.1,0,0.1,0,0.1c0,0,0.1,0.1,0.1,0 l1.5-0.3c0.1,0,0.1,0,0.1-0.1l2.1-3.5l1.6-0.2l4.1-0.8l-1.7,12.7c0,0.1,0,0.1,0.1,0.1c0,0,0.1,0.1,0.1,0l2.2-0.4 c0.1,0,0.1,0,0.1-0.1l1.2-3l0.3-0.6l1.2-0.3l0.4-0.1c0.4-0.1,0.6-0.4,0.6-0.8c-0.1-0.4-0.4-0.6-0.8-0.6l-0.4,0.1l-0.3,0.1l0.3-0.6 l0.6-1.6l1.9-0.4c0.4-0.1,0.6-0.4,0.6-0.8c-0.1-0.4-0.4-0.6-0.8-0.6l-1,0.2l1.8-4.4l2.3-0.4l2.7-0.5c0.8-0.1,1.6-0.7,1.8-1.5 c0-0.1,0-0.2-0.1-0.3c-0.6-0.6-1.5-0.8-2.2-0.7l-2.7,0.5l-2.3,0.4l-3.4-3.5l1-0.2c0.4-0.1,0.6-0.4,0.6-0.8c-0.1-0.4-0.4-0.6-0.8-0.6 l-1.9,0.4L86.3,27l-0.4-0.5l0.3-0.1l0.4-0.1c0.4-0.1,0.6-0.4,0.6-0.8c-0.1-0.4-0.4-0.6-0.8-0.6L85.9,25l-1.2,0.3l-0.4-0.5L82,22.5 c0,0-0.1-0.1-0.1,0l-2.2,0.4c-0.1,0-0.1,0-0.1,0.1s0,0.1,0,0.1l6.2,11.2L81.8,35L80.1,35.3L80.1,35.3z"></path><path d="M22.3,68.9c0,0.1,0,0.1,0,0.2c-0.1,0.1-0.1,0.3-0.1,0.3c-0.1,0.3-0.2,0.4-0.2,0.7c0,0.1,0,0.1,0,0.3s0.1,0.2,0.1,0.2 c0.1,0.1,0.1,0,0.3-0.1c0-0.1,0.1-0.1,0.1-0.1c0.1-0.1,0.1-0.3,0.2-0.4s0.1-0.4,0.2-0.6c0.1-0.1,0.1-0.3,0.1-0.4 c0-0.1,0-0.3-0.1-0.4c-0.1-0.2-0.3-0.3-0.4-0.3c-0.1,0-0.1,0.1-0.2,0.1h-0.1c0-0.1,0.1-0.2,0.1-0.3c0.1-0.3,0.1-0.6,0.3-0.9v-0.1 c0-0.1-0.1-0.2-0.1-0.1c-0.1,0-0.1,0.1-0.1,0.1c-0.1,0.1-0.1,0.1-0.1,0.2c-0.1,0.2-0.3,0.4-0.3,0.6c-0.3,0.6-0.4,1.3-0.6,1.9 C21,69.9,21,70,21,70.2c0,0.3,0.2,0.4,0.4,0.3c0.1-0.1,0.1-0.1,0.1-0.2c0.1-0.1,0.1-0.3,0.2-0.4c0.1-0.3,0.1-0.4,0.2-0.7 c0.1-0.2,0.1-0.2,0.2-0.3C22.1,68.8,22.2,68.8,22.3,68.9C22.2,68.9,22.2,68.9,22.3,68.9L22.3,68.9z"></path><path d="M24.4,69c0.1-0.1,0.1-0.3,0.1-0.4c-0.1-0.1-0.5-0.2-0.5-0.2c-0.1,0-0.1,0-0.2,0c-0.3,0.1-0.6,0.2-0.8,0.5 c-0.1,0.1-0.2,0.3-0.3,0.4c-0.1,0.1-0.1,0.3-0.1,0.4c0,0.3,0.1,0.6,0.4,0.6c0.1,0,0.4,0,0.4-0.1l0.1,0.1c0,0,0.1,0.1,0.3,0.1 c0.1-0.1,0.3-0.3,0.3-0.5v-0.1C24.3,69.6,24.4,69.4,24.4,69L24.4,69z M23.7,69.7c-0.1,0.1-0.3,0.1-0.4,0.1c-0.1,0-0.1-0.1-0.1-0.2 c0.1-0.4,0.3-0.8,0.7-0.8c0,0,0,0,0.1,0.1C23.9,69.2,23.7,69.5,23.7,69.7L23.7,69.7z"></path><path d="M25,70.2C25,70.3,25.1,70.3,25,70.2c0.1,0.2,0.3,0.3,0.4,0.3s0.3,0,0.4,0c0.3-0.1,0.4-0.2,0.6-0.4s0.2-0.6,0.1-0.9 c-0.1-0.4-0.3-0.8-0.7-0.8c-0.1,0-0.3,0-0.4,0.1c-0.1,0.1-0.3,0.2-0.4,0.4c-0.1,0.3-0.3,0.5-0.4,0.8c-0.3,0.7-0.4,1.5-0.7,2.2v0.1 c0,0.1-0.1,0.2-0.1,0.3s0,0.3,0.1,0.3c0.1,0.1,0.3,0.1,0.3,0c0.1-0.1,0.2-0.2,0.2-0.3c0.1-0.1,0.1-0.2,0.1-0.3 c0.1-0.4,0.2-0.9,0.3-1.3C24.9,70.4,24.9,70.3,25,70.2L25,70.2z M25.1,69.9c0.1-0.4,0.2-0.7,0.3-1.1c0.1-0.1,0.3,0,0.4,0.1 c0.1,0.1,0.1,0.1,0.1,0.3c0,0,0,0,0,0.1c0,0.3-0.1,0.4-0.3,0.6c-0.1,0.1-0.2,0.1-0.3,0.1C25.2,69.9,25.1,69.9,25.1,69.9L25.1,69.9z"></path><path d="M27.2,70.2C27.2,70.3,27.3,70.3,27.2,70.2c0.1,0.2,0.3,0.3,0.4,0.3s0.3,0,0.4,0c0.3-0.1,0.4-0.2,0.6-0.4s0.2-0.6,0.1-0.9 c-0.1-0.4-0.3-0.8-0.7-0.8c-0.1,0-0.3,0-0.4,0.1c-0.1,0.1-0.3,0.2-0.4,0.4c-0.1,0.3-0.3,0.5-0.4,0.8c-0.3,0.7-0.4,1.5-0.7,2.2v0.1 c0,0.1-0.1,0.2-0.1,0.3s0,0.3,0.1,0.3c0.1,0.1,0.3,0.1,0.3,0c0.1-0.1,0.2-0.2,0.2-0.3c0.1-0.1,0.1-0.2,0.1-0.3 c0.1-0.4,0.2-0.9,0.3-1.3C27.2,70.4,27.2,70.3,27.2,70.2L27.2,70.2z M27.3,69.9c0.1-0.4,0.2-0.7,0.3-1.1c0.1-0.1,0.3,0,0.4,0.1 c0.1,0.1,0.1,0.1,0.1,0.3c0,0,0,0,0,0.1c0,0.3-0.1,0.4-0.3,0.6c-0.1,0.1-0.2,0.1-0.3,0.1C27.4,69.9,27.3,69.9,27.3,69.9L27.3,69.9z"></path><path d="M28.9,70.3c0,0.1,0,0.1,0.1,0.1c0.1,0.1,0.1,0.1,0.3,0.1c0.1,0,0.1,0,0.2-0.1c0.1-0.1,0.2-0.1,0.2-0.3 c0-0.1,0.1-0.1,0.1-0.3c0.1-0.2,0.1-0.4,0.1-0.6c0.1-0.3,0.1-0.6,0.2-1v-0.1c0-0.1-0.1-0.1-0.1-0.1c-0.1,0-0.1,0-0.1,0.1 c-0.1,0-0.1,0.1-0.1,0.1c-0.1,0.1-0.2,0.3-0.3,0.4c-0.1,0.2-0.2,0.4-0.3,0.6c-0.1,0.3-0.1,0.4-0.2,0.7 C28.9,70.2,28.9,70.2,28.9,70.3L28.9,70.3z M29.6,67.8c0,0.2,0.1,0.3,0.3,0.3s0.3-0.1,0.3-0.3s-0.1-0.3-0.3-0.3 C29.8,67.5,29.6,67.6,29.6,67.8L29.6,67.8z"></path><path d="M31.3,68.8c0,0.1,0,0.2-0.1,0.3c-0.1,0.1-0.1,0.2-0.1,0.3c-0.1,0.2-0.1,0.4-0.2,0.5c-0.1,0.1-0.1,0.2-0.1,0.3 c0,0.1,0.1,0.2,0.1,0.2c0.1,0.1,0.2,0.1,0.3,0c0.1-0.1,0.1-0.1,0.1-0.1c0.1-0.2,0.3-0.4,0.3-0.6c0.1-0.1,0.1-0.3,0.1-0.4 c0.1-0.2,0.1-0.4,0.1-0.6c0-0.3-0.3-0.5-0.5-0.5c-0.1,0-0.2,0-0.3,0.1c-0.1,0-0.1,0-0.1,0.1c0-0.1,0-0.1,0-0.1c0-0.1,0-0.1,0.1-0.1 c0-0.1-0.1-0.1-0.1-0.1c-0.1,0-0.1,0.1-0.1,0.1c-0.1,0.1-0.1,0.1-0.1,0.2c-0.1,0.2-0.2,0.4-0.3,0.6c-0.1,0.3-0.3,0.6-0.3,0.8 c-0.1,0.1-0.1,0.3-0.1,0.4c0,0.1,0,0.1,0,0.2c0,0.1,0.1,0.2,0.1,0.3c0.1,0.1,0.2,0.1,0.3,0c0.1-0.1,0.1-0.1,0.1-0.1 c0.1-0.2,0.2-0.4,0.3-0.6c0.1-0.3,0.1-0.5,0.1-0.7c0-0.1,0.1-0.1,0.1-0.2c0.1,0,0.1,0,0.1-0.1C31.2,68.8,31.2,68.7,31.3,68.8 L31.3,68.8z"></path><path d="M33.9,68.8c-0.1-0.1-0.1-0.1-0.3-0.2c-0.1-0.1-0.2-0.1-0.3-0.1c-0.4,0-0.8,0.1-1.1,0.5C32,69.2,32,69.5,32,69.7 c0,0.3,0.1,0.4,0.3,0.6l0,0l0,0c0.1,0.1,0.1,0.1,0.2,0.1c0.1,0.1,0.2,0.1,0.3,0.1c0.2,0,0.3,0,0.5-0.1c0.1,0,0.1,0,0.1-0.1 c0.1-0.1,0.3-0.2,0.3-0.3c0-0.2-0.1-0.3-0.3-0.3c0,0-0.1,0-0.1,0.1c-0.2,0.1-0.3,0.1-0.5,0l0,0l-0.1-0.1l-0.1-0.1 c0.1,0,0.1,0,0.5-0.1c0.1,0,0.3-0.1,0.4-0.1c0.1-0.1,0.2-0.1,0.3-0.2C33.9,69.2,34,69,33.9,68.8L33.9,68.8L33.9,68.8z M33.2,69.1 c-0.1,0.1-0.2,0.1-0.3,0.1c-0.1,0.1-0.3,0.1-0.4,0.2c0,0,0,0,0-0.1c0.1-0.3,0.4-0.4,0.7-0.4C33.2,69,33.2,69,33.2,69.1 C33.3,69,33.3,69,33.2,69.1L33.2,69.1L33.2,69.1z"></path><path d="M35.2,69.2C35.2,69.2,35,69.1,35,69c-0.1-0.1-0.1-0.1-0.2-0.1c0.1-0.1,0.1-0.1,0.2-0.1c0.1-0.1,0.3-0.1,0.4-0.1 c0,0,0.1,0.1,0.1-0.1c0.1-0.1,0.1-0.1,0-0.2c-0.1-0.1-0.1-0.1-0.1-0.1c-0.3-0.1-0.6-0.1-0.8,0.1c-0.3,0.2-0.3,0.5-0.1,0.8 c0.1,0.1,0.1,0.1,0.1,0.1c0.1,0.1,0.1,0.1,0.1,0.1c0,0,0.1,0,0.1,0.1c0,0,0,0-0.1,0s-0.1,0.1-0.2,0.1c-0.1,0.1-0.3,0.1-0.4,0.1 c-0.1,0-0.1,0.1-0.2,0.1c-0.2,0.1-0.2,0.4,0,0.5c0.1,0.1,0.1,0.1,0.1,0.1c0.4,0.1,0.7,0.1,1-0.1c0.1-0.1,0.3-0.2,0.4-0.3 c0.1-0.3,0.1-0.5-0.1-0.7C35.3,69.3,35.3,69.2,35.2,69.2L35.2,69.2z"></path><path d="M37.1,69.2c-0.1-0.1-0.2-0.1-0.3-0.2c-0.1-0.1-0.1-0.1-0.2-0.1c0.1-0.1,0.1-0.1,0.2-0.1c0.1-0.1,0.3-0.1,0.4-0.1 c0,0,0.1,0.1,0.1-0.1c0.1-0.1,0.1-0.1,0-0.2c-0.1-0.1-0.1-0.1-0.1-0.1c-0.3-0.1-0.6-0.1-0.8,0.1C36,68.7,36,69,36.2,69.3 c0.1,0.1,0.1,0.1,0.1,0.1c0.1,0.1,0.1,0.1,0.1,0.1c0,0,0.1,0,0.1,0.1c0,0,0,0-0.1,0s-0.1,0.1-0.2,0.1c-0.1,0.1-0.3,0.1-0.4,0.1 c-0.1,0-0.1,0.1-0.2,0.1c-0.2,0.1-0.2,0.4,0,0.5c0.1,0.1,0.1,0.1,0.1,0.1c0.4,0.1,0.7,0.1,1-0.1c0.1-0.1,0.3-0.2,0.4-0.3 c0.1-0.3,0.1-0.5-0.1-0.7C37.2,69.3,37.1,69.2,37.1,69.2L37.1,69.2z"></path><path d="M41.2,68.5c-0.1-0.1-0.2-0.1-0.3,0.1c-0.1,0.1-0.1,0.1-0.1,0.1c-0.2,0.3-0.4,0.5-0.6,0.8l-0.1,0.1c0-0.1,0-0.1,0-0.1 c0-0.1,0-0.3,0-0.4s0-0.2,0-0.3c0-0.1,0-0.1-0.1-0.1c-0.1-0.1-0.3-0.1-0.3,0c-0.1,0.1-0.1,0.1-0.1,0.2c-0.1,0.3-0.3,0.5-0.4,0.8 c0,0.1-0.1,0.1-0.1,0.1l0,0c0-0.1,0-0.1,0-0.1c0-0.1,0-0.2-0.1-0.3c0-0.3-0.1-0.4-0.1-0.7v-0.1c0-0.1-0.1-0.1-0.1-0.1l-0.1,0.1 c0,0.1-0.1,0.1-0.1,0.1c-0.1,0.1-0.1,0.3-0.1,0.4c0,0.2-0.1,0.4-0.1,0.6c0,0.3,0,0.4,0.1,0.7c0,0.1,0,0.1,0,0.2c0,0,0,0,0,0.1v0.1 c0.1,0.1,0.3,0.1,0.3,0c0-0.1,0.1-0.1,0.1-0.1c0.1-0.3,0.3-0.5,0.5-0.8c0,0,0-0.1,0.1-0.1v0.1c0,0.1,0,0.3,0,0.4c0,0.1,0,0.2,0,0.3 c0,0.1,0.1,0.3,0.3,0.3c0.1,0,0.1-0.1,0.2-0.1c0.1-0.1,0.1-0.1,0.1-0.2c0.1-0.3,0.3-0.5,0.5-0.8c0.1-0.2,0.3-0.4,0.4-0.6 c0.1-0.1,0.1-0.1,0.1-0.1C41.3,68.6,41.2,68.5,41.2,68.5L41.2,68.5z"></path><path d="M41,70.3c0,0.1,0,0.1,0.1,0.1c0.1,0.1,0.1,0.1,0.3,0.1c0.1,0,0.1,0,0.2-0.1c0.1-0.1,0.2-0.1,0.2-0.3c0-0.1,0.1-0.1,0.1-0.3 c0.1-0.2,0.1-0.4,0.1-0.6c0.1-0.3,0.1-0.6,0.2-1v-0.1c0-0.1-0.1-0.1-0.1-0.1s-0.1,0-0.1,0.1c-0.1,0-0.1,0.1-0.1,0.1 c-0.1,0.1-0.2,0.3-0.3,0.4c-0.1,0.2-0.2,0.4-0.3,0.6c-0.1,0.3-0.1,0.4-0.2,0.7C41,70.2,41,70.2,41,70.3L41,70.3z M41.7,67.8 c0,0.2,0.1,0.3,0.3,0.3s0.3-0.1,0.3-0.3s-0.1-0.3-0.3-0.3S41.7,67.6,41.7,67.8L41.7,67.8z"></path><path d="M43.1,68.8c0.1-0.5,0.3-1,0.3-1.4c0-0.1,0-0.1,0-0.1c0-0.1-0.1-0.1-0.1-0.1s-0.1,0.1-0.1,0.1c-0.1,0.1-0.1,0.1-0.1,0.1 c-0.1,0.2-0.2,0.3-0.3,0.5c-0.1,0.3-0.3,0.6-0.3,0.9c-0.1,0.3-0.2,0.7-0.3,1c0,0.1-0.1,0.2-0.1,0.3c0,0.1,0,0.1,0,0.3 c0,0.1,0,0.1,0.1,0.2c0.1,0,0.1,0.1,0.1,0.1c0.1,0,0.2,0.1,0.3,0.1s0.3-0.1,0.4-0.1c0.1-0.1,0.1-0.1,0.1-0.2c0.1-0.1,0-0.3-0.1-0.3 c-0.1,0-0.1,0-0.2-0.1h-0.1c0-0.1,0.1-0.1,0.1-0.2C42.9,69.4,43,69.1,43.1,68.8L43.1,68.8z"></path><path d="M44.4,68.8c0.1-0.5,0.3-1,0.3-1.4c0-0.1,0-0.1,0-0.1c0-0.1-0.1-0.1-0.1-0.1s-0.1,0.1-0.1,0.1c-0.1,0.1-0.1,0.1-0.1,0.1 c-0.1,0.2-0.2,0.3-0.3,0.5c-0.1,0.3-0.3,0.6-0.3,0.9c-0.1,0.3-0.2,0.7-0.3,1c0,0.1-0.1,0.2-0.1,0.3c0,0.1,0,0.1,0,0.3 c0,0.1,0,0.1,0.1,0.2c0.1,0,0.1,0.1,0.1,0.1c0.1,0,0.2,0.1,0.3,0.1s0.3-0.1,0.4-0.1c0.1-0.1,0.1-0.1,0.1-0.2c0.1-0.1,0-0.3-0.1-0.3 c-0.1,0-0.1,0-0.2-0.1H44c0-0.1,0.1-0.1,0.1-0.2C44.3,69.4,44.4,69.1,44.4,68.8L44.4,68.8z"></path><path d="M47.4,68.9c0,0.1,0,0.1,0,0.2c-0.1,0.1-0.1,0.3-0.1,0.3c-0.1,0.3-0.2,0.4-0.2,0.7c0,0.1,0,0.1,0,0.3s0.1,0.2,0.1,0.2 c0.1,0.1,0.1,0,0.3-0.1c0-0.1,0.1-0.1,0.1-0.1c0.1-0.1,0.1-0.3,0.2-0.4c0.1-0.2,0.1-0.4,0.2-0.6C48,69.2,48,69,48,68.9 c0-0.1,0-0.3-0.1-0.4c-0.1-0.2-0.3-0.3-0.4-0.3c-0.1,0-0.1,0.1-0.2,0.1h-0.1c0-0.1,0.1-0.2,0.1-0.3c0.1-0.3,0.1-0.6,0.3-0.9v-0.1 c0-0.1-0.1-0.2-0.1-0.1c-0.1,0-0.1,0.1-0.1,0.1c-0.1,0.1-0.1,0.1-0.1,0.2c-0.1,0.2-0.3,0.4-0.3,0.6c-0.3,0.6-0.4,1.3-0.6,1.9 c-0.1,0.1-0.1,0.3-0.1,0.4c0,0.3,0.2,0.4,0.4,0.3c0.1-0.1,0.1-0.1,0.1-0.2c0.1-0.1,0.1-0.3,0.2-0.4c0.1-0.3,0.1-0.4,0.2-0.7 c0.1-0.2,0.1-0.2,0.2-0.3C47.3,68.8,47.3,68.8,47.4,68.9C47.3,68.9,47.4,68.9,47.4,68.9L47.4,68.9z"></path><path d="M49.6,69c0.1-0.1,0.1-0.3,0.1-0.4s-0.5-0.2-0.5-0.2c-0.1,0-0.1,0-0.2,0c-0.3,0.1-0.6,0.2-0.8,0.5C48.2,69,48,69.2,48,69.4 s-0.1,0.3-0.1,0.4c0,0.3,0.1,0.6,0.4,0.6c0.1,0,0.4,0,0.4-0.1l0.1,0.1c0,0,0.1,0.1,0.3,0.1c0.1-0.1,0.3-0.3,0.3-0.5v-0.1 C49.5,69.6,49.6,69.4,49.6,69L49.6,69z M48.9,69.7c-0.1,0.1-0.3,0.1-0.4,0.1c-0.1,0-0.1-0.1-0.1-0.2c0.1-0.4,0.3-0.8,0.7-0.8 c0,0,0,0,0.1,0.1C49,69.2,48.9,69.5,48.9,69.7L48.9,69.7z"></path><path d="M50.1,70.2C50.1,70.3,50.2,70.3,50.1,70.2c0.1,0.2,0.3,0.3,0.4,0.3s0.3,0,0.4,0c0.3-0.1,0.4-0.2,0.6-0.4 c0.1-0.3,0.2-0.6,0.1-0.9c-0.1-0.4-0.3-0.8-0.7-0.8c-0.1,0-0.3,0-0.4,0.1c-0.1,0.1-0.3,0.2-0.4,0.4c-0.1,0.3-0.3,0.5-0.4,0.8 c-0.3,0.7-0.4,1.5-0.7,2.2v0.1c0,0.1-0.1,0.2-0.1,0.3s0,0.3,0.1,0.3c0.1,0.1,0.3,0.1,0.3,0c0.1-0.1,0.2-0.2,0.2-0.3 c0.1-0.1,0.1-0.2,0.1-0.3c0.1-0.4,0.2-0.9,0.3-1.3C50.1,70.4,50.1,70.3,50.1,70.2L50.1,70.2z M50.2,69.9c0.1-0.4,0.2-0.7,0.3-1.1 c0.1-0.1,0.3,0,0.4,0.1C51,69,51,69,51,69.2c0,0,0,0,0,0.1c0,0.3-0.1,0.4-0.3,0.6c-0.1,0.1-0.2,0.1-0.3,0.1 C50.3,69.9,50.3,69.9,50.2,69.9L50.2,69.9z"></path><path d="M52.4,70.2C52.4,70.3,52.4,70.3,52.4,70.2c0.1,0.2,0.3,0.3,0.4,0.3c0.1,0,0.3,0,0.4,0c0.3-0.1,0.4-0.2,0.6-0.4 c0.1-0.3,0.2-0.6,0.1-0.9c-0.1-0.4-0.3-0.8-0.7-0.8c-0.1,0-0.3,0-0.4,0.1c-0.1,0.1-0.3,0.2-0.4,0.4c-0.1,0.3-0.3,0.5-0.4,0.8 c-0.3,0.7-0.4,1.5-0.7,2.2v0.1c0,0.1-0.1,0.2-0.1,0.3s0,0.3,0.1,0.3c0.1,0.1,0.3,0.1,0.3,0c0.1-0.1,0.2-0.2,0.2-0.3 c0.1-0.1,0.1-0.2,0.1-0.3c0.1-0.4,0.2-0.9,0.3-1.3C52.4,70.4,52.4,70.3,52.4,70.2L52.4,70.2z M52.4,69.9c0.1-0.4,0.2-0.7,0.3-1.1 c0.1-0.1,0.3,0,0.4,0.1c0.1,0.1,0.1,0.1,0.1,0.3c0,0,0,0,0,0.1c0,0.3-0.1,0.4-0.3,0.6c-0.1,0.1-0.2,0.1-0.3,0.1 C52.6,69.9,52.5,69.9,52.4,69.9L52.4,69.9z"></path><path d="M56,68.8c-0.1-0.1-0.1-0.1-0.3-0.2c-0.1-0.1-0.2-0.1-0.3-0.1c-0.4,0-0.8,0.1-1.1,0.5c-0.2,0.2-0.3,0.4-0.2,0.7 c0,0.3,0.1,0.4,0.3,0.6l0,0l0,0c0.1,0.1,0.1,0.1,0.2,0.1c0.1,0.1,0.2,0.1,0.3,0.1c0.2,0,0.3,0,0.5-0.1c0.1,0,0.1,0,0.1-0.1 c0.1-0.1,0.3-0.2,0.3-0.3c0-0.2-0.1-0.3-0.3-0.3c0,0-0.1,0-0.1,0.1c-0.2,0.1-0.3,0.1-0.5,0l0,0l-0.1-0.1l-0.1-0.1 c0.1,0,0.1,0,0.5-0.1c0.1,0,0.3-0.1,0.4-0.1c0.1-0.1,0.2-0.1,0.3-0.2C56.1,69.2,56.1,69,56,68.8L56,68.8L56,68.8z M55.3,69.1 c-0.1,0.1-0.2,0.1-0.3,0.1c-0.1,0.1-0.3,0.1-0.4,0.2c0,0,0,0,0-0.1c0.1-0.3,0.4-0.4,0.7-0.4C55.3,69,55.3,69,55.3,69.1 C55.4,69,55.4,69,55.3,69.1L55.3,69.1L55.3,69.1z"></path><path d="M57.4,68.8c0,0.1,0,0.2-0.1,0.3c-0.1,0.1-0.1,0.2-0.1,0.3c-0.1,0.2-0.1,0.4-0.2,0.5C57,70.1,57,70.1,57,70.2 c0,0.1,0.1,0.2,0.1,0.2c0.1,0.1,0.2,0.1,0.3,0c0.1-0.1,0.1-0.1,0.1-0.1c0.1-0.2,0.3-0.4,0.3-0.6c0.1-0.1,0.1-0.3,0.1-0.4 c0.1-0.2,0.1-0.4,0.1-0.6c0-0.3-0.3-0.5-0.5-0.5c-0.1,0-0.2,0-0.3,0.1c-0.1,0-0.1,0-0.1,0.1c0-0.1,0-0.1,0-0.1c0-0.1,0-0.1,0.1-0.1 c0-0.1-0.1-0.1-0.1-0.1c-0.1,0-0.1,0.1-0.1,0.1c-0.1,0.1-0.1,0.1-0.1,0.2c-0.1,0.2-0.2,0.4-0.3,0.6c-0.1,0.3-0.3,0.6-0.3,0.8 c-0.1,0.1-0.1,0.3-0.1,0.4c0,0.1,0,0.1,0,0.2c0,0.1,0.1,0.2,0.1,0.3c0.1,0.1,0.2,0.1,0.3,0c0.1-0.1,0.1-0.1,0.1-0.1 c0.1-0.2,0.2-0.4,0.3-0.6c0.1-0.3,0.1-0.5,0.1-0.7c0-0.1,0.1-0.1,0.1-0.2c0.1,0,0.1,0,0.1-0.1C57.2,68.8,57.3,68.7,57.4,68.8 L57.4,68.8z"></path></svg>