<svg xmlns="http://www.w3.org/2000/svg" xmlns:xlink="http://www.w3.org/1999/xlink" x="0px" y="0px" viewBox="0 0 160.6 53.2" style="enable-background:new 0 0 160.6 53.2;" xml:space="preserve"><g>	<g>		<path d="M71.6,21.8c0.3,0,0.5,0.1,0.5,0.4v2c0,0.2-0.1,0.4-0.4,0.5c0,0-0.1,0-0.1,0h-6.4v10.9   c0,0.2-0.1,0.4-0.3,0.4c0,0-0.1,0-0.1,0h-2.2c-0.2,0-0.4-0.1-0.4-0.3c0,0,0-0.1,0-0.1V24.8h-6.4c-0.2,0-0.4-0.1-0.5-0.4   c0,0,0-0.1,0-0.1v-2c0-0.3,0.2-0.4,0.5-0.4L71.6,21.8z"></path>		<path d="M77,29.1h7.8c0.5,0.1,1.1-0.1,1.5-0.4c0.3-0.4,0.5-0.9,0.4-1.4v-0.9c0-0.5-0.1-1-0.4-1.4   c-0.4-0.3-0.9-0.5-1.5-0.4h-7.6c-0.2,0-0.3,0.1-0.3,0.2V29.1z M85.5,21.8c1.2-0.1,2.4,0.3,3.4,1.1c0.7,0.9,1.1,2,1,3.1v1.2   c0.1,1-0.2,1.9-0.7,2.8c-0.6,0.7-1.4,1.2-2.3,1.3l3.5,4.3c0.1,0.1,0.1,0.2,0.1,0.3c0,0.1-0.1,0.2-0.3,0.2h-2.6   c-0.1,0-0.3,0-0.4-0.1C87,36,86.9,36,86.9,35.9l-3.2-4.3H77v4.1c0,0.2-0.1,0.4-0.3,0.4c0,0-0.1,0-0.1,0h-2.2   c-0.3,0-0.5-0.1-0.5-0.4V22.5c0-0.3,0.2-0.6,0.5-0.6c0.1,0,0.1,0,0.2,0L85.5,21.8z"></path>		<path d="M101.5,21.8c0.5,0,0.9,0.1,1.3,0.3c0.4,0.3,0.8,0.7,1,1.2l6.8,12.3c0.1,0.1,0.1,0.2,0.1,0.3   c0,0.1-0.1,0.1-0.3,0.1h-2.6c-0.2,0-0.4-0.1-0.5-0.3c-2.9-5.2-3-5.4-6-11c0-0.1-0.1-0.1-0.2-0.1H101c-0.1,0-0.2,0.1-0.2,0.1   c-2.7,5.1-3.4,6.2-5.9,11c-0.1,0.2-0.3,0.3-0.5,0.3h-2.7c-0.2,0-0.3,0-0.3-0.1c0-0.1,0-0.2,0.1-0.3l6.7-12.3   c0.2-0.5,0.6-0.9,1-1.2c0.3-0.2,0.7-0.3,1.1-0.3H101.5z"></path>		<path d="M110.3,21.8c0.1,0,0.2,0,0.3,0.1c0.1,0.1,0.1,0.1,0.2,0.2l6,11c0,0.1,0.1,0.2,0.2,0.1h0.1   c0.1,0,0.2-0.1,0.2-0.1l5.9-11c0.1-0.2,0.3-0.3,0.5-0.3h2.7c0.2,0,0.3,0,0.3,0.1c0,0.1,0,0.2-0.1,0.3L120,34.6   c-0.2,0.5-0.6,0.9-1,1.2c-0.3,0.2-0.7,0.3-1.1,0.3h-1.2c-0.5,0-0.9-0.1-1.3-0.3c-0.4-0.3-0.8-0.7-1-1.2l-6.8-12.3   c-0.1-0.1-0.1-0.2-0.1-0.3c0-0.1,0.1-0.1,0.3-0.1L110.3,21.8z"></path>		<path d="M143,21.8c0.3,0,0.5,0.1,0.5,0.4v1.9c0,0.3-0.2,0.4-0.5,0.4H134c-0.4,0-0.9,0-1.3,0.1   c-0.3,0.1-0.6,0.2-0.8,0.4c-0.2,0.2-0.4,0.5-0.4,0.9c-0.1,0.4-0.1,0.9-0.1,1.3v0.2h11.6c0.2,0,0.4,0.1,0.4,0.3c0,0,0,0.1,0,0.1   v1.6c0,0.2-0.1,0.4-0.3,0.4c0,0-0.1,0-0.1,0h-11.6v0.3c0,0.5,0,0.9,0.1,1.3c0.1,0.3,0.2,0.6,0.4,0.9c0.2,0.2,0.5,0.4,0.8,0.4   c0.4,0.1,0.9,0.1,1.3,0.1h8.9c0.3,0,0.5,0.1,0.5,0.4v2c0,0.3-0.2,0.4-0.5,0.4h-9c-0.9,0-1.8-0.1-2.6-0.3c-0.7-0.2-1.3-0.5-1.8-0.9   c-0.5-0.5-0.8-1-1-1.7c-0.2-0.8-0.3-1.7-0.3-2.5v-3.5c0-0.8,0.1-1.7,0.3-2.5c0.2-0.6,0.5-1.2,1-1.7c0.5-0.5,1.1-0.8,1.8-0.9   c0.9-0.2,1.7-0.3,2.6-0.3L143,21.8z"></path>		<path d="M148.4,21.8c0.2,0,0.4,0.1,0.4,0.3c0,0,0,0.1,0,0.1v8.2c0,0.5,0,0.9,0.1,1.4c0.1,0.3,0.2,0.6,0.4,0.9   c0.2,0.2,0.5,0.4,0.8,0.4c0.4,0.1,0.9,0.1,1.3,0.1h8.3c0.2,0,0.4,0.1,0.4,0.3c0,0,0,0.1,0,0.1v2c0,0.2-0.1,0.4-0.3,0.4   c0,0-0.1,0-0.1,0h-8.4c-0.9,0-1.8-0.1-2.6-0.3c-0.7-0.2-1.3-0.5-1.8-0.9c-0.5-0.5-0.8-1-1-1.7c-0.2-0.8-0.3-1.7-0.3-2.5v-8.5   c0-0.3,0.2-0.4,0.5-0.4L148.4,21.8z"></path>		<path d="M15.3,40.5c3,4.3,7.5,7.3,12.6,8.4c-4.8-0.4-9.4-2.3-13.1-5.5c-0.6-0.6-1.3-1.2-1.8-1.8L15.3,40.5z    M12.7,11.9C20.8,2.6,35,1.6,44.3,9.8c3.6,3.2,6.2,7.5,7.2,12.2C47.7,11.3,35.9,5.8,25.3,9.6S9.1,25.1,12.9,35.8   c0.2,0.5,0.3,0.9,0.5,1.4l-2.6,1.8C5.3,30.5,6.1,19.5,12.7,11.9"></path>		<path d="M17.1,21l15.1,5l11.3-4l-9.1,7.8l-3.2,15.6l-1.1-13L0.3,47l27.5-18.4L17.1,21z"></path>	</g></g></svg>