<svg xmlns="http://www.w3.org/2000/svg" xmlns:xlink="http://www.w3.org/1999/xlink" x="0px" y="0px" viewBox="0 0 160.6 53.2" style="enable-background:new 0 0 160.6 53.2;" xml:space="preserve"><g>	<g>		<g>			<path d="M60.8,14.4l4.3,7.1h-1L57,14.1h-5.4c-0.4,0-0.7-0.2-0.9-0.6c-0.2-0.5,0-1,0.4-1.2l0.2-0.1    c0.1-0.1,0.3-0.1,0.5-0.1h5.5l6.9-7.6h1l-4.3,7.9h2.8c4.2,0,7.7-3.4,7.7-7.7V0.3H41.3v40.5h8.1V25.5h21.8v-0.9    c0-5.6-4.6-10.2-10.2-10.2C61,14.4,60.8,14.4,60.8,14.4z"></path>			<rect x="76.8" y="0.3" width="7.5" height="40.5"></rect>			<path d="M88.5,12.1l11.3,27.6l-5.7,13.1h7.7l17.4-40.7h-7l-8.4,20.3l-7.4-20.3L88.5,12.1z"></path>		</g>	</g></g></svg>