<svg xmlns="http://www.w3.org/2000/svg" xmlns:xlink="http://www.w3.org/1999/xlink" x="0px" y="0px" viewBox="0 0 160.6 53.2" style="enable-background:new 0 0 160.6 53.2;" xml:space="preserve"><g>	<g>		<path d="M56.3,52.4l-12.3-8.7c-0.5-0.3-0.3-0.6,0.1-0.8l25.9-15c0.1-0.1,0.2-0.1,0.1,0.1L57,52.3   c-0.1,0.2-0.4,0.3-0.6,0.2C56.4,52.5,56.4,52.5,56.3,52.4"></path>		<path d="M38.3,40.8L70,26.9L26.7,37.7c-0.4,0.1-0.4,0.2,0.2,0.4l9.3,2.9C36.9,41.3,37.7,41.1,38.3,40.8"></path>		<path d="M86.6,29.9C85.1,15.7,81,5.2,72.7,0.9c10.7-2,17.2,10,19.3,28.9L86.6,29.9z"></path>		<path d="M79.8,29.9C78.3,15.7,74.2,5.3,65.9,1.1C76.6-0.9,83,11,85.2,29.9H79.8z"></path>		<path d="M78,29.9c-6.9-45.1-31.8-32.4-33.3-0.1c6.5-36.9,24.6-30.6,27.9,0.1H78z"></path>		<path d="M60.1,4.5c-4.2,5-7.3,13.6-7.8,24.4C54.5,16,58.2,8.4,62.2,5.2C61.5,4.9,60.8,4.6,60.1,4.5"></path>		<path d="M64.8,7.4c-3.1,5.1-5.2,12.5-5.6,21.3c1.6-9.3,4-15.9,6.7-20C65.6,8.2,65.2,7.8,64.8,7.4"></path>		<path d="M76.1,43.9h2.2v-8.1h3.1v-2.1H73v2.1h3.1V43.9z"></path>		<path d="M87.4,44.1c2.7,0,4.5-1.5,4.5-4.6v-5.7h-2.2v5.8c0,1.6-0.8,2.4-2.2,2.4s-2.2-0.9-2.2-2.5v-5.8H83v5.8   C83,42.6,84.7,44.1,87.4,44.1"></path>		<path d="M94.2,43.9h2.2v-6.5l4.9,6.5h1.9V33.7H101V40l-4.8-6.3h-2.1L94.2,43.9z"></path>		<path d="M105.7,43.9h2.2v-6.5l4.9,6.5h1.9V33.7h-2.2V40l-4.8-6.3h-2.1V43.9z"></path>		<path d="M117.2,43.9h7.8v-2h-5.5v-2.1h4.8v-2h-4.8v-2.1h5.5v-2h-7.7L117.2,43.9z"></path>		<path d="M126.9,43.9h7.3v-2h-5.1v-8.2h-2.2L126.9,43.9z"></path>	</g></g></svg>