<svg xmlns="http://www.w3.org/2000/svg" xmlns:xlink="http://www.w3.org/1999/xlink" x="0px" y="0px" viewBox="0 0 100 100" style="enable-background:new 0 0 100 100;" xml:space="preserve">	<path d="M16.7,66.5c2.6,0.4,5.3,0.1,7.8-1.2c4.9-2.4,7.4-7.6,6.8-12.7C29.4,54.9,25.4,60.6,16.7,66.5z"></path>	<path d="M24.4,54.6c0.3-0.2,0.5-0.3,0.8-0.5c2-1.3,3.8-2,5.5-3.5c0.2-0.7-0.4-1.8-0.6-2.3c-3.2-6.2-10.8-8.7-17-5.5  c-5.9,3-8.4,10-5.9,16.1C11.3,59,17.6,57.4,24.4,54.6z"></path>	<path d="M18.2,62.2C12.5,66,7.7,67.7,5.8,66.1C5.9,66.6,6,67,6.3,67.3c2.2,2.5,10.8-1.4,19.3-8.7c5-4.3,8.8-8.8,10.7-12.4  c-2,2.9-5.1,6.2-8.8,9.4C24.3,58.3,21.1,60.6,18.2,62.2z"></path>	<path d="M52.7,32.1c-0.4-0.4-3.2-0.1-4.8,1.2c-0.6,0.5-1.6,1.4-2.6,2.4c-2.9,0.6-6.6,1.4-8,2c-1.8,0.8,2.5,0.9,5,1.1  c-1.7,1.8-3.5,3.7-4,4.4c-1.5,0.2-2.7,0.6-3.6,1c-1.2,0.5,1.2,0.4,2.5,0.5l0.1-0.1c-0.1,0.1-0.2,0.3-0.2,0.4  c-0.1,0.4,0.3,0.1,0.8-0.2c0,0.8-0.1,1.6,0.3,1c0.4-0.5,0.9-1,1.4-2c0.9-0.7,2.9-2.2,4.7-3.6c-0.3,1.5-0.6,3.3,0.3,2.4  c0.9-1,1.9-3.3,2.4-4.5c0.7-0.6,1.3-1.1,1.9-1.5C51.6,34.6,53.1,32.6,52.7,32.1z"></path>		<path d="M25.5,53.4c-10.2,6-19.8,8.3-21.6,5.3c-0.7-1.2,0-3.2,1.8-5.4c-3.6,3.5-5.3,6.5-4.4,8.3c1.8,3,11.5,0.6,21.6-5.3  c6-3.5,10.8-7.5,13.4-10.8C33.6,48,29.9,50.8,25.5,53.4z"></path>	<path d="M26.8,46c1.3,2.9-2,7.2-7.4,9.5c-5.3,2.4-10.7,2-12-0.9c-1.3-2.9,2-7.2,7.4-9.5C20.1,42.8,25.5,43.2,26.8,46z"></path>	<path d="M40.8,56.1h4l-0.6,5.1c-0.3,0.3-0.6,0.4-1,0.6c-0.3,0.2-0.7,0.3-1,0.4c-0.4,0.1-0.8,0.2-1.2,0.3c-0.4,0.1-0.8,0.1-1.3,0.1  c-0.8,0-1.4-0.1-2-0.4c-0.6-0.3-1.2-0.6-1.6-1.2c-0.4-0.5-0.8-1-1-1.7c-0.3-0.6-0.4-1.3-0.4-2.1c0-0.6,0.1-1.3,0.3-1.9  c0.1-0.6,0.4-1.2,0.6-1.7c0.3-0.5,0.6-1,1-1.4c0.4-0.4,0.8-0.8,1.3-1.1c0.5-0.3,1-0.5,1.5-0.7c0.6-0.1,1.2-0.3,1.7-0.3  c0.5,0,1,0.1,1.4,0.1c0.4,0.1,0.8,0.2,1.2,0.4c0.3,0.1,0.6,0.3,0.9,0.6c0.3,0.2,0.5,0.4,0.7,0.6l-0.9,1.1c-0.1,0.2-0.3,0.3-0.5,0.3  c-0.2,0.1-0.4,0-0.6-0.1c-0.2-0.1-0.4-0.3-0.6-0.3c-0.2-0.1-0.3-0.2-0.5-0.3c-0.1,0-0.3-0.1-0.5-0.1c-0.2,0-0.4-0.1-0.6-0.1  c-0.5,0-1,0.1-1.5,0.3c-0.4,0.2-0.8,0.5-1.2,1c-0.3,0.4-0.6,0.9-0.7,1.5c-0.2,0.6-0.3,1.2-0.3,1.9c0,0.5,0.1,1,0.2,1.4  c0.1,0.4,0.3,0.8,0.6,1.1s0.5,0.5,0.8,0.6c0.3,0.1,0.7,0.3,1.1,0.3c0.3,0,0.6,0,0.9-0.1c0.3-0.1,0.5-0.1,0.8-0.3l0.3-2h-1  c-0.2,0-0.3-0.1-0.4-0.1c-0.1-0.1-0.1-0.2-0.1-0.3L40.8,56.1z"></path>	<path d="M49.4,62.5c-0.5,0-1-0.1-1.3-0.3c-0.4-0.2-0.8-0.4-1.1-0.7c-0.3-0.3-0.6-0.7-0.7-1.2c-0.2-0.4-0.3-1-0.3-1.5  c0-0.8,0.1-1.5,0.4-2.1s0.6-1.2,1-1.7c0.4-0.4,0.9-0.8,1.5-1.1c0.6-0.3,1.2-0.4,1.8-0.4c0.5,0,0.9,0.1,1.3,0.3  c0.4,0.2,0.8,0.4,1.1,0.7c0.3,0.3,0.6,0.7,0.7,1.2c0.2,0.4,0.3,1,0.3,1.5c0,0.8-0.1,1.5-0.4,2.1c-0.3,0.6-0.6,1.2-1,1.7  s-0.9,0.8-1.5,1.1C50.6,62.3,50,62.5,49.4,62.5z M49.7,60.6c0.3,0,0.5-0.1,0.8-0.3s0.4-0.4,0.6-0.7c0.1-0.3,0.3-0.6,0.4-1  c0.1-0.4,0.1-0.8,0.1-1.3c0-0.6-0.1-1.1-0.3-1.3c-0.2-0.3-0.4-0.4-0.8-0.4c-0.3,0-0.5,0.1-0.8,0.3c-0.3,0.2-0.4,0.4-0.6,0.7  c-0.1,0.3-0.3,0.6-0.4,1c-0.1,0.4-0.1,0.8-0.1,1.3c0,0.6,0.1,1,0.3,1.3C49,60.4,49.3,60.6,49.7,60.6z"></path>	<path d="M63,52.4h-3.1l-1.2,9.9H56l1.2-9.9h-3.1l0.3-2.1h8.8L63,52.4z"></path>	<path d="M65.2,55.5c0.2-0.4,0.4-0.7,0.6-1c0.3-0.3,0.5-0.4,0.7-0.6c0.3-0.1,0.5-0.3,0.8-0.3c0.3,0,0.5,0,0.8,0.1l-0.4,2.4  C67.3,56,67,56,66.7,56s-0.5,0.1-0.8,0.3c-0.3,0.2-0.4,0.4-0.6,0.8c-0.2,0.4-0.3,0.8-0.4,1.3l-0.4,3.8h-2.5l1-8.6h1.3  c0.3,0,0.4,0.1,0.6,0.2c0.1,0.1,0.2,0.3,0.2,0.6L65.2,55.5L65.2,55.5z"></path>	<path d="M73.3,60.9c-0.3,0.5-0.8,0.9-1.2,1.2c-0.4,0.3-0.9,0.4-1.4,0.4c-0.3,0-0.6-0.1-0.9-0.2c-0.3-0.1-0.5-0.3-0.8-0.6  c-0.2-0.3-0.4-0.6-0.5-1s-0.2-0.8-0.2-1.4c0-0.8,0.1-1.5,0.4-2.2c0.3-0.7,0.7-1.3,1.2-1.9c0.5-0.5,1.1-1,1.8-1.3  c0.7-0.3,1.5-0.4,2.3-0.4c0.4,0,0.8,0,1.2,0.1c0.4,0.1,0.8,0.1,1.2,0.3l-1,8.3h-1.3c-0.2,0-0.3,0-0.4-0.1c-0.1-0.1-0.2-0.1-0.3-0.2  c-0.1-0.1-0.1-0.1-0.1-0.3s-0.1-0.2-0.1-0.3L73.3,60.9L73.3,60.9z M73.7,55.4c-0.4,0-0.8,0.1-1.2,0.3s-0.6,0.4-0.9,0.8  c-0.3,0.3-0.4,0.7-0.6,1.2c-0.1,0.4-0.2,0.9-0.2,1.3c0,0.3,0,0.5,0.1,0.7c0.1,0.2,0.1,0.3,0.2,0.4c0.1,0.1,0.2,0.2,0.3,0.3  c0.1,0.1,0.2,0.1,0.3,0.1c0.2,0,0.4-0.1,0.6-0.2c0.2-0.1,0.3-0.3,0.5-0.6c0.1-0.3,0.3-0.5,0.4-0.8c0.1-0.3,0.3-0.7,0.3-1l0.3-2.4  C73.9,55.4,73.7,55.4,73.7,55.4z"></path>	<path d="M86.3,53.7l-4.2,8.6h-2.2l-2.1-8.6h2.1c0.2,0,0.3,0.1,0.4,0.1s0.2,0.2,0.2,0.3l0.6,3.8c0.1,0.3,0.1,0.6,0.1,1  c0.1,0.3,0.1,0.6,0.1,1c0.1-0.3,0.2-0.6,0.3-1c0.1-0.3,0.3-0.6,0.4-1l1.5-3.8c0.1-0.1,0.1-0.3,0.3-0.3s0.3-0.1,0.4-0.1H86.3z"></path>	<path d="M93.6,60.8c-0.3,0.3-0.6,0.6-0.9,0.8c-0.3,0.2-0.6,0.4-0.9,0.5c-0.3,0.1-0.6,0.3-1,0.3c-0.3,0.1-0.7,0.1-1.2,0.1  c-0.5,0-1-0.1-1.4-0.3c-0.4-0.2-0.8-0.4-1.1-0.8c-0.3-0.3-0.5-0.7-0.7-1.2c-0.2-0.4-0.3-1-0.3-1.5c0-0.4,0.1-0.9,0.1-1.3  c0.1-0.4,0.3-0.8,0.4-1.2c0.2-0.4,0.4-0.8,0.7-1.1c0.3-0.3,0.6-0.6,1-0.8c0.3-0.3,0.7-0.4,1.2-0.5c0.4-0.1,0.8-0.2,1.3-0.2  c0.4,0,0.9,0.1,1.2,0.2c0.4,0.1,0.6,0.3,0.9,0.5c0.3,0.2,0.4,0.4,0.6,0.7s0.2,0.5,0.2,0.8c0,0.4-0.1,0.8-0.3,1.1  c-0.1,0.3-0.4,0.6-0.8,0.9s-0.9,0.4-1.5,0.6c-0.6,0.2-1.5,0.3-2.4,0.4c0,0.6,0.1,1,0.4,1.3c0.3,0.3,0.6,0.4,1.1,0.4  c0.3,0,0.4,0,0.6-0.1c0.2-0.1,0.3-0.1,0.4-0.1c0.1-0.1,0.3-0.1,0.3-0.2c0.1-0.1,0.2-0.1,0.3-0.2c0.1-0.1,0.2-0.1,0.3-0.1  c0.1-0.1,0.2-0.1,0.3-0.1c0.1,0,0.2,0,0.3,0.1c0.1,0.1,0.1,0.1,0.2,0.2L93.6,60.8z M90.8,55.4c-0.4,0-0.8,0.2-1.1,0.5  s-0.6,0.8-0.7,1.4c0.5-0.1,1-0.2,1.3-0.3c0.3-0.1,0.6-0.2,0.8-0.3c0.2-0.1,0.3-0.2,0.4-0.3c0.1-0.1,0.1-0.3,0.1-0.4  c0-0.1-0.1-0.3-0.2-0.4C91.2,55.4,91,55.4,90.8,55.4z"></path>	<path d="M94.9,62.3l1.5-12.4H99l-1.5,12.4H94.9z"></path></svg>